<svg width="156" height="96" viewBox="0 0 156 96" fill="none" xmlns="http://www.w3.org/2000/svg">
<path d="M137.336 75.3549C134.601 75.3549 131.969 75.0108 129.44 74.3226C126.91 73.5656 124.586 72.5334 122.466 71.2259C120.347 69.8495 118.501 68.1979 116.928 66.271L124.107 59.0452C125.816 61.0409 127.765 62.5549 129.952 63.5871C132.208 64.5506 134.738 65.0323 137.541 65.0323C140.071 65.0323 141.985 64.6538 143.284 63.8968C144.583 63.1398 145.232 62.0387 145.232 60.5936C145.232 59.0796 144.617 57.9097 143.386 57.0839C142.156 56.2581 140.549 55.5699 138.567 55.0194C136.652 54.4 134.601 53.7807 132.414 53.1613C130.294 52.542 128.243 51.7162 126.261 50.6839C124.346 49.5828 122.774 48.1033 121.543 46.2452C120.313 44.3871 119.697 41.9785 119.697 39.0194C119.697 35.8538 120.415 33.1355 121.851 30.8645C123.355 28.5936 125.44 26.8387 128.106 25.6C130.841 24.3613 134.088 23.7419 137.849 23.7419C141.814 23.7419 145.301 24.4645 148.309 25.9097C151.385 27.286 153.949 29.385 156 32.2065L148.821 39.4323C147.386 37.643 145.745 36.3011 143.899 35.4065C142.053 34.5118 139.934 34.0645 137.541 34.0645C135.285 34.0645 133.542 34.4086 132.311 35.0968C131.08 35.785 130.465 36.7828 130.465 38.0903C130.465 39.4667 131.08 40.5334 132.311 41.2903C133.542 42.0473 135.114 42.7011 137.028 43.2516C139.011 43.8022 141.062 44.4215 143.181 45.1097C145.369 45.7291 147.42 46.6237 149.334 47.7936C151.317 48.8947 152.923 50.4086 154.154 52.3355C155.385 54.1936 156 56.6366 156 59.6645C156 64.4818 154.325 68.3011 150.975 71.1226C147.625 73.9441 143.079 75.3549 137.336 75.3549Z" fill="white"/>
<path d="M97.4007 74.3226V0H108.681V74.3226H97.4007Z" fill="white"/>
<path d="M64.6258 75.3549C60.4554 75.3549 56.7295 74.4258 53.4479 72.5678C50.2346 70.7097 47.7051 68.1635 45.8592 64.929C44.0816 61.6258 43.1929 57.8409 43.1929 53.5742V24.7742H54.4734V53.0581C54.4734 55.4667 54.8494 57.5312 55.6014 59.2516C56.4218 60.9032 57.584 62.1764 59.0881 63.071C60.6605 63.9656 62.5064 64.4129 64.6258 64.4129C67.9074 64.4129 70.4028 63.4495 72.1119 61.5226C73.8895 59.5269 74.7782 56.7054 74.7782 53.0581V24.7742H86.0587V53.5742C86.0587 57.9097 85.1358 61.729 83.2899 65.0323C81.5124 68.2667 79.017 70.8129 75.8037 72.671C72.5905 74.4602 68.8645 75.3549 64.6258 75.3549Z" fill="white"/>
<path d="M14.6646 96C11.1779 96 8.34073 95.4495 6.153 94.3484C3.8969 93.2473 1.8459 91.6301 0 89.4968L7.28105 82.1678C8.10145 83.2688 9.02439 84.0602 10.0499 84.542C11.0754 85.0925 12.3402 85.3678 13.8442 85.3678C15.6901 85.3678 17.2626 84.7828 18.5615 83.6129C19.9289 82.5118 20.6125 80.8602 20.6125 78.6581V24.7742H31.893V78.5549C31.893 82.3398 31.0726 85.5054 29.4318 88.0516C27.8594 90.6667 25.7742 92.628 23.1763 93.9355C20.5784 95.3119 17.7411 96 14.6646 96Z" fill="white"/>
</svg>
